<svg width="56" height="67" viewBox="0 0 56 67" fill="none" xmlns="http://www.w3.org/2000/svg">
<path d="M12.5741 0.217079C11.5241 0.554115 10.7333 1.05967 9.94259 1.90226C8.71111 3.23745 8.2963 4.48189 8.2963 6.84115V8.26707H6.76667C4.42037 8.26707 3.26667 8.65596 1.91852 9.92633C1.12778 10.6652 0.557407 11.5726 0.246296 12.5578C0.012963 13.3226 0 14.1523 0 37.3041C0 60.7411 0 61.2726 0.259259 62.0763C0.764815 63.7226 1.87963 65.0059 3.48704 65.7966L4.45926 66.2763L23.45 66.3152C40.8463 66.3541 42.5185 66.3411 43.2704 66.1337C44.8 65.7318 46.2907 64.5004 47.0296 63.0096C47.5481 61.9985 47.7037 61.1559 47.7037 59.4707V58.0448H49.2074C51.5537 58.0448 52.7463 57.643 54.0815 56.3855C54.8722 55.6467 55.4426 54.7392 55.7537 53.7541C55.987 52.9893 56 52.1596 56 29.0078C56 5.57078 56 5.0393 55.7407 4.2356C55.2352 2.5893 54.1204 1.30597 52.513 0.515228L51.5407 0.0355988L32.4204 0.00967407C14.4278 -0.0162506 13.2481 -0.00328827 12.5741 0.217079ZM50.2185 3.9893C50.8407 4.13189 51.3074 4.45596 51.6963 5.02633L51.9815 5.45411L51.9556 29.0856L51.9167 52.717L51.6444 53.067C51.0611 53.8578 50.7889 53.9615 49.1815 54.0004L47.7037 54.0522V33.843C47.7037 11.8319 47.7426 12.9856 46.9778 11.4819C46.55 10.6263 45.3574 9.43374 44.5148 9.00596C42.9722 8.22818 43.8667 8.26707 27.3778 8.26707H12.2889L12.3407 6.80226C12.3796 5.42818 12.4056 5.29856 12.7426 4.85781C13.1315 4.3393 13.4556 4.13189 14.0648 3.97633C14.6481 3.84671 49.6222 3.84671 50.2185 3.9893ZM42.7519 12.6485C42.9852 12.8171 43.2833 13.18 43.4259 13.4652C43.6852 13.9578 43.6852 14.243 43.6593 37.4726L43.6204 60.9874L43.2574 61.4541C42.4796 62.4652 44.1519 62.3874 24.4352 62.4263C14.7389 62.4522 6.50741 62.4263 6.13148 62.3874C5.3537 62.2966 4.73148 61.9207 4.31667 61.2985L4.01852 60.8578V37.4207C4.01852 21.1393 4.05741 13.88 4.16111 13.6208C4.34259 13.1411 4.77037 12.6745 5.25 12.4671C5.57407 12.3245 8.89259 12.2985 23.9815 12.3245L42.3241 12.3504L42.7519 12.6485Z" fill="url(#paint0_linear_156_202)"/>
<path d="M16.2692 19.5448C12.4192 21.7745 9.12663 23.7189 8.97107 23.8615C8.27107 24.4967 8.297 24.2245 8.297 33.1559C8.297 42.0874 8.27107 41.8152 8.97107 42.4504C9.12663 42.593 12.4192 44.5374 16.2692 46.767C23.2563 50.7985 23.2692 50.8115 23.9174 50.7596C24.5007 50.7078 25.3433 50.2541 31.5007 46.7152C35.3118 44.5115 38.5914 42.567 38.7988 42.3856C38.9933 42.2041 39.2137 41.8411 39.2785 41.5948C39.447 40.9726 39.447 25.3393 39.2785 24.7171C39.2137 24.4708 38.9933 24.1078 38.7988 23.9263C38.5914 23.7448 35.3118 21.8004 31.5007 19.5967C25.3563 16.0578 24.5007 15.6041 23.9174 15.5523C23.2692 15.5004 23.2433 15.5134 16.2692 19.5448ZM29.647 23.2134L35.3248 26.493V33.1559V39.8189L29.634 43.0985C26.497 44.9133 23.8655 46.3782 23.7748 46.3522C23.684 46.3263 21.0655 44.8485 17.9674 43.0726L12.3285 39.8319V33.1559V26.48L17.9933 23.2134C21.1044 21.4245 23.7229 19.9467 23.8137 19.9467C23.8914 19.9337 26.5229 21.4115 29.647 23.2134Z" fill="url(#paint1_linear_156_202)"/>
<path d="M22.9823 24.0688C22.4897 24.3021 22.1786 24.704 19.7027 28.4243C17.0842 32.3651 16.9805 32.5336 16.9805 33.1558C16.9805 33.778 17.0842 33.9466 19.7027 37.8873C22.2823 41.7632 22.4638 42.0095 23.0212 42.2558C23.6694 42.528 24.2397 42.5021 24.9138 42.1521C25.1601 42.0225 26.1453 40.6484 27.9601 37.9262L30.6564 33.8947V33.1558V32.4169L27.9601 28.3854C26.0934 25.5595 25.1601 24.2892 24.9008 24.1595C24.2527 23.8225 23.5786 23.7836 22.9823 24.0688ZM25.0564 31.341C25.6786 32.2614 26.1842 33.078 26.1842 33.1558C26.1842 33.3243 23.9675 36.6558 23.8508 36.6558C23.7342 36.6558 21.5175 33.3243 21.5175 33.1558C21.5175 32.9873 23.7342 29.6558 23.8508 29.6558C23.9027 29.6558 24.4471 30.4077 25.0564 31.341Z" fill="url(#paint2_linear_156_202)"/>
<path d="M9.644 54.1689C8.77548 54.4152 8.20511 55.4004 8.33474 56.3985C8.42548 57.0467 8.76252 57.5263 9.34585 57.8115C9.76067 58.0318 10.7199 58.0448 23.8514 58.0448C37.3329 58.0448 37.9422 58.0318 38.3699 57.7985C39.0051 57.4615 39.3292 56.8522 39.3292 56.0096C39.3292 55.2707 39.1088 54.843 38.4477 54.3633C38.0977 54.0911 38.007 54.0911 24.0718 54.0652C15.957 54.0522 9.87734 54.0911 9.644 54.1689Z" fill="url(#paint3_linear_156_202)"/>
<defs>
<linearGradient id="paint0_linear_156_202" x1="8.13559" y1="66.3325" x2="56.5413" y2="0.397392" gradientUnits="userSpaceOnUse">
<stop stop-color="#17DAE3"/>
<stop offset="0.90625" stop-color="#003DFF"/>
</linearGradient>
<linearGradient id="paint1_linear_156_202" x1="12.8162" y1="50.7693" x2="38.1554" y2="14.6656" gradientUnits="userSpaceOnUse">
<stop stop-color="#17DAE3"/>
<stop offset="0.90625" stop-color="#003DFF"/>
</linearGradient>
<linearGradient id="paint2_linear_156_202" x1="18.9673" y1="42.4398" x2="32.9548" y2="25.8117" gradientUnits="userSpaceOnUse">
<stop stop-color="#17DAE3"/>
<stop offset="0.90625" stop-color="#003DFF"/>
</linearGradient>
<linearGradient id="paint3_linear_156_202" x1="12.8219" y1="58.0448" x2="13.3036" y2="51.9916" gradientUnits="userSpaceOnUse">
<stop stop-color="#17DAE3"/>
<stop offset="0.90625" stop-color="#003DFF"/>
</linearGradient>
</defs>
</svg>
