<svg width="49" height="48" viewBox="0 0 49 48" fill="none" xmlns="http://www.w3.org/2000/svg">
<path d="M23.691 0.125515C23.269 0.313038 22.7346 0.819351 22.5002 1.25066L22.2939 1.63508L22.2658 14.0585L22.247 26.4725L20.4843 24.7286C18.5622 22.8252 18.4309 22.7408 17.4183 22.7408C16.9682 22.7408 16.7432 22.8065 16.3494 23.0127C15.5149 23.4722 15.1211 24.1566 15.1211 25.1505C15.1211 26.1913 15.1774 26.2663 19.406 30.4762C22.9784 34.0297 23.269 34.3016 23.7378 34.4517C24.3285 34.6486 25.1349 34.6017 25.6318 34.3579C26.0632 34.1422 33.5548 26.6694 33.8079 26.2006C34.0892 25.6756 34.0892 24.5786 33.8079 24.0347C33.5454 23.5472 32.9641 23.0221 32.5046 22.8627C31.9327 22.6658 31.0888 22.7127 30.5919 22.9659C30.3387 23.0877 29.5417 23.8003 28.6041 24.7286L27.0289 26.285V14.0116C27.0289 2.31954 27.0195 1.71009 26.8508 1.35379C26.6351 0.866234 26.1569 0.388046 25.6693 0.172398C25.2193 -0.0338783 24.1223 -0.0620079 23.691 0.125515Z" fill="url(#paint0_linear_156_193)"/>
<path d="M7.75968 12.9428C5.55627 13.2616 3.61539 14.1898 2.27459 15.5681C1.58075 16.2807 1.14007 16.9652 0.783769 17.884L0.539987 18.5122L0.511858 30.1199C0.483729 43.1059 0.446224 42.2246 1.16819 43.6122C2.12457 45.4687 4.14983 46.8939 6.7283 47.5502L7.57216 47.7659H24.4962H41.4203L42.2642 47.5502C44.8427 46.8939 46.8679 45.4687 47.8243 43.6122C48.5463 42.2339 48.4994 43.0778 48.4994 30.3543C48.4994 17.7809 48.5369 18.5029 47.8899 17.1996C46.9242 15.2306 44.8614 13.7679 42.1236 13.0928C41.3828 12.9147 40.989 12.8959 36.4322 12.8678L31.5284 12.8303V15.2212V17.6121L36.0571 17.6402C40.9328 17.6871 41.0078 17.6871 42.1798 18.2216C42.733 18.4747 43.3893 19.0279 43.5862 19.4123C43.6988 19.6374 43.7175 21.2594 43.7175 30.3262C43.7175 42.1964 43.7644 41.3338 43.0705 41.9151C42.583 42.3183 41.7204 42.7121 40.9046 42.8809C40.2671 43.0215 38.6918 43.0309 24.215 43.0122L8.22849 42.984L7.47839 42.7309C6.61578 42.4402 5.86568 41.962 5.53752 41.512L5.32186 41.2026L5.29373 30.4668C5.27498 22.6753 5.30311 19.6655 5.37812 19.478C5.52814 19.1029 6.24073 18.4841 6.80331 18.2309C7.98471 17.6871 8.05034 17.6871 12.9447 17.6402L17.4641 17.6121V15.2212V12.8397L12.8979 12.849C10.3756 12.8584 8.0691 12.8959 7.75968 12.9428Z" fill="url(#paint1_linear_156_193)"/>
<defs>
<linearGradient id="paint0_linear_156_193" x1="17.8665" y1="34.5742" x2="44.1039" y2="11.4356" gradientUnits="userSpaceOnUse">
<stop stop-color="#17DAE3"/>
<stop offset="0.90625" stop-color="#003DFF"/>
</linearGradient>
<linearGradient id="paint1_linear_156_193" x1="7.47337" y1="47.7659" x2="27.5049" y2="3.35948" gradientUnits="userSpaceOnUse">
<stop stop-color="#17DAE3"/>
<stop offset="0.90625" stop-color="#003DFF"/>
</linearGradient>
</defs>
</svg>
