<svg width="65" height="64" viewBox="0 0 65 64" fill="none" xmlns="http://www.w3.org/2000/svg">
<path d="M44.5167 52.3L30.4 38.0667C29.6222 38.3778 28.8351 38.6111 28.0387 38.7667C27.2422 38.9222 26.396 39 25.5 39C21.6111 39 18.3056 37.6389 15.5833 34.9167C12.8611 32.1944 11.5 28.8889 11.5 25C11.5 23.6 11.6944 22.2684 12.0833 21.0053C12.4722 19.7422 13.0167 18.546 13.7167 17.4167L22.2333 25.9333L26.4333 21.7333L17.9167 13.2167C19.0444 12.5167 20.2407 11.9722 21.5053 11.5833C22.77 11.1944 24.1016 11 25.5 11C29.3889 11 32.6944 12.3611 35.4167 15.0833C38.1389 17.8056 39.5 21.1111 39.5 25C39.5 25.8944 39.4222 26.7407 39.2667 27.5387C39.1111 28.3367 38.8778 29.1238 38.5667 29.9L52.8 44.0167C53.2667 44.4833 53.5 45.0472 53.5 45.7083C53.5 46.3694 53.2667 46.9333 52.8 47.4L47.9 52.3C47.4333 52.7667 46.8694 53 46.2083 53C45.5472 53 44.9833 52.7667 44.5167 52.3Z" fill="url(#paint0_linear_156_184)"/>
<defs>
<linearGradient id="paint0_linear_156_184" x1="17.6017" y1="11" x2="46.3711" y2="57.4184" gradientUnits="userSpaceOnUse">
<stop stop-color="#17DAE3"/>
<stop offset="0.90625" stop-color="#003DFF"/>
</linearGradient>
</defs>
</svg>
